<svg xmlns="http://www.w3.org/2000/svg" width="226.985" height="16" viewBox="403 191 226.985 16"><g data-name="Group 6472"><path d="M441.335 205.035h6.767v1.779h-8.884v-15.64h2.117v13.861Zm15.978 1.779h-2.117v-15.64h2.117v15.64Zm6.745-15.64h1.692c.19 0 .342.047.458.142a.873.873 0 0 1 .262.36l4.42 11.034c.102.248.195.517.279.808.084.291.165.593.245.906.066-.313.137-.615.213-.906.077-.291.166-.56.268-.808l4.398-11.034a.914.914 0 0 1 .262-.344.682.682 0 0 1 .458-.158h1.703l-6.374 15.64h-1.91l-6.374-15.64Zm30.658 0v1.725h-7.509v5.195h6.08v1.659h-6.08v5.337h7.509v1.724h-9.637v-15.64h9.637Zm22.068 13.96c.648 0 1.226-.11 1.735-.328a3.64 3.64 0 0 0 1.294-.917 4.01 4.01 0 0 0 .807-1.408 5.565 5.565 0 0 0 .279-1.8v-9.507h2.106v9.506c0 .903-.144 1.74-.43 2.51a5.832 5.832 0 0 1-1.234 2.003 5.64 5.64 0 0 1-1.96 1.326c-.77.32-1.636.48-2.597.48-.96 0-1.826-.16-2.597-.48a5.696 5.696 0 0 1-1.965-1.326 5.79 5.79 0 0 1-1.239-2.002 7.133 7.133 0 0 1-.43-2.51v-9.507h2.106v9.495c0 .655.092 1.256.278 1.801a4.01 4.01 0 0 0 .808 1.408c.352.393.785.7 1.298.922.513.222 1.094.333 1.741.333Zm16.546-4.17v5.85h-2.107v-15.64h4.617c.99 0 1.85.115 2.581.344.732.23 1.337.555 1.817.977.48.422.839.931 1.075 1.528.237.596.355 1.262.355 1.997a5.09 5.09 0 0 1-.382 1.997 4.297 4.297 0 0 1-1.118 1.561c-.492.437-1.101.777-1.829 1.02-.727.244-1.56.366-2.499.366h-2.51Zm0-1.68h2.51c.604 0 1.137-.08 1.599-.24.462-.16.85-.385 1.162-.672.313-.287.55-.631.71-1.031.16-.4.24-.84.24-1.321 0-.997-.308-1.775-.922-2.336-.615-.56-1.545-.84-2.789-.84h-2.51v6.44Zm28.933-.284c0 1.171-.186 2.237-.557 3.197a7.092 7.092 0 0 1-1.571 2.467 7.007 7.007 0 0 1-2.434 1.588c-.946.375-1.994.562-3.143.562h-5.85v-15.64h5.85c1.15 0 2.197.188 3.143.562a6.969 6.969 0 0 1 2.434 1.594 7.149 7.149 0 0 1 1.571 2.472c.371.96.557 2.026.557 3.198Zm-2.172 0c0-.96-.13-1.82-.393-2.576-.262-.757-.633-1.397-1.113-1.921a4.748 4.748 0 0 0-1.746-1.2c-.684-.277-1.445-.415-2.281-.415h-3.722V205.1h3.722c.836 0 1.597-.139 2.28-.415a4.779 4.779 0 0 0 1.747-1.195c.48-.52.851-1.159 1.113-1.916.262-.756.393-1.615.393-2.575Zm21.828 7.814h-1.637a.704.704 0 0 1-.458-.142.872.872 0 0 1-.262-.36l-1.463-3.776h-7.017l-1.463 3.776a.853.853 0 0 1-.262.35.697.697 0 0 1-.458.152h-1.637l6.253-15.64h2.15l6.254 15.64Zm-10.248-5.806h5.839l-2.456-6.363c-.16-.393-.316-.884-.469-1.474-.08.299-.158.573-.235.824a9.845 9.845 0 0 1-.223.66l-2.456 6.353Zm25.8-9.834v1.78h-5.052v13.86H590.3v-13.86h-5.075v-1.78h12.246Zm16.23 0v1.725h-7.509v5.195h6.08v1.659h-6.08v5.337h7.509v1.724h-9.637v-15.64h9.637Zm15.421 2.445a.846.846 0 0 1-.207.246.46.46 0 0 1-.284.081c-.123 0-.267-.061-.43-.185a6.872 6.872 0 0 0-.623-.41 5.05 5.05 0 0 0-.906-.409c-.353-.123-.78-.185-1.282-.185-.473 0-.891.063-1.255.19-.364.128-.668.3-.912.52a2.128 2.128 0 0 0-.55.769 2.442 2.442 0 0 0-.186.955c0 .436.107.798.322 1.086.214.287.498.532.851.736.353.204.753.38 1.2.53.448.149.906.303 1.376.463.469.16.927.34 1.375.54.447.2.848.454 1.2.76.353.305.637.68.852 1.123.214.444.322.99.322 1.637a5.28 5.28 0 0 1-.35 1.927 4.44 4.44 0 0 1-1.02 1.566 4.774 4.774 0 0 1-1.648 1.048c-.651.254-1.392.382-2.221.382-1.011 0-1.934-.184-2.767-.551a6.49 6.49 0 0 1-2.133-1.49l.61-1.004a.803.803 0 0 1 .214-.202.499.499 0 0 1 .278-.082c.153 0 .327.082.524.245.196.164.442.344.736.54.295.197.652.377 1.07.54.418.165.93.247 1.533.247.502 0 .95-.07 1.343-.208.393-.138.726-.333.998-.584a2.53 2.53 0 0 0 .628-.9c.146-.35.218-.739.218-1.168 0-.473-.107-.86-.322-1.162a2.67 2.67 0 0 0-.845-.759 5.912 5.912 0 0 0-1.196-.518l-1.375-.437c-.469-.149-.927-.322-1.375-.518a4.47 4.47 0 0 1-1.195-.764 3.51 3.51 0 0 1-.846-1.173c-.214-.47-.322-1.05-.322-1.741 0-.553.108-1.088.322-1.605.215-.516.526-.975.933-1.375.408-.4.912-.72 1.512-.96s1.29-.36 2.068-.36c.873 0 1.67.138 2.39.414.72.277 1.35.677 1.888 1.2l-.513 1.005Z" fill="#900" fill-rule="evenodd" data-name="Path 36295"/><path d="M403 199a8 8 0 0 0 8 8 8 8 0 0 0 8-8 8 8 0 0 0-8-8 8 8 0 0 0-8 8" fill="#900" fill-rule="evenodd" data-name="Path 36294"/></g></svg>