<svg xmlns="http://www.w3.org/2000/svg" width="67.384" height="50"><g data-name="Group 6462"><path d="m17.25 19.867 6.423 13.923L33.187 0 17.25 19.867Z" fill-rule="evenodd" fill="url(&quot;#a&quot;)" transform="translate(1.528)" data-name="Path 36275"/><path d="M39.045 16.46 30.02 48.52l15.992-14.207-6.967-17.853Z" fill-rule="evenodd" fill="url(&quot;#b&quot;)" transform="translate(2.66 1.458)" data-name="Path 36276"/><path d="M32.664 0 23.15 33.79l7.468 16.199.01-.011 9.025-32.06L32.664 0Z" fill-rule="evenodd" fill="url(&quot;#c&quot;)" transform="translate(2.051)" data-name="Path 36277"/><g data-name="Group 6461"><path d="m29.153 20.662.141-.055c.25-.12.468-.25.632-.413.337-.316.61-.73.925-1.11.577-.708 1.252-1.525 1.829-2.243.479-.588 1.143-1.22.816-2.101-.337-.915-1.262-.915-1.97-1.024a946.493 946.493 0 0 1-6.804-1.066l.381.99s4.42.653 6.652.97c.283.043.696.184.805.478.174.457-.283.893-.577 1.241-.784.925-1.535 1.829-2.297 2.71-.24.284-.511.763-1.012.697-.327-.043-.425-.348-.577-.762l-1.557-4.05-.816.316 1.415 3.68s.305.882.511 1.197c.338.545.904.686 1.514.545Z" fill="#fff" fill-rule="evenodd" data-name="Path 36278"/><path d="m33.17 17.407-.142.054c-.25.12-.468.25-.631.414-.338.316-.61.73-.926 1.11-.576.708-1.251 1.524-1.828 2.243-.48.588-1.143 1.219-.817 2.1.338.915 1.263.915 1.97 1.024 2.254.338 6.804 1.067 6.804 1.067l-.38-.99s-4.42-.654-6.652-.97c-.283-.043-.697-.185-.806-.479-.174-.457.283-.892.577-1.24.784-.926 1.535-1.83 2.297-2.711.24-.283.512-.762 1.013-.697.326.044.424.348.577.762l1.556 4.05.817-.316-1.415-3.68s-.305-.881-.512-1.197c-.337-.544-.904-.686-1.513-.544Z" fill="#fff" fill-rule="evenodd" data-name="Path 36279"/><path d="m33.736 32.582.141-.055c.25-.12.468-.25.632-.413.337-.316.61-.73.925-1.11.577-.708 1.252-1.525 1.829-2.243.479-.588 1.143-1.22.816-2.101-.337-.915-1.262-.915-1.97-1.023-2.253-.338-6.804-1.067-6.804-1.067l.381.99s4.42.654 6.652.97c.283.043.696.184.805.478.174.457-.283.893-.577 1.241-.784.926-1.535 1.83-2.297 2.71-.24.284-.511.763-1.012.698-.327-.044-.425-.349-.577-.762l-1.557-4.05-.816.316 1.415 3.68s.305.88.512 1.197c.337.544.903.685 1.513.544Z" fill="#fff" fill-rule="evenodd" data-name="Path 36280"/><path d="m37.753 29.338-.142.054c-.25.12-.468.25-.631.414-.338.316-.61.73-.926 1.11-.576.708-1.251 1.524-1.828 2.243-.48.588-1.143 1.22-.817 2.1.338.915 1.263.915 1.97 1.024 2.254.338 6.804 1.067 6.804 1.067l-.38-.99s-4.42-.654-6.652-.97c-.283-.043-.697-.185-.806-.478-.174-.458.283-.893.577-1.242.784-.925 1.535-1.828 2.297-2.71.24-.283.512-.762 1.013-.697.326.044.424.349.577.762l1.556 4.05.817-.316-1.415-3.68s-.305-.881-.512-1.197c-.337-.544-.904-.686-1.513-.544Z" fill="#fff" fill-rule="evenodd" data-name="Path 36281"/></g><path d="M20.096 0c-4.856 0-8.513 3.364-9.645 8.273C8.752 15.654 0 49.99 0 49.99h17.744c2.243 0 3.266-1.503 3.952-3.723L25.2 33.79 34.716 0h-14.62Z" fill-rule="evenodd" fill="url(&quot;#d&quot;)" data-name="Path 36282"/><path d="M46.991 0c-2.242 0-3.265 1.502-3.951 3.723l-3.995 14.195-9.025 32.07L44.64 50c4.855 0 8.513-3.363 9.645-8.273C55.972 34.335 64.725 0 64.725 0H46.98Z" fill-rule="evenodd" fill="url(&quot;#e&quot;)" transform="translate(2.66)" data-name="Path 36283"/></g><defs><linearGradient x1="-.443" y1=".5" x2="2.074" y2=".5" id="a"><stop stop-color="#1d1d1b" offset="0"/><stop stop-color="#3c3c3b" offset=".72"/><stop stop-color="#575756" offset="1"/></linearGradient><linearGradient x1="-1.31" y1=".5" x2="1.197" y2=".5" id="b"><stop stop-color="#1d1d1b" offset="0"/><stop stop-color="#3c3c3b" offset=".72"/><stop stop-color="#575756" offset="1"/></linearGradient><linearGradient x1="-.817" y1=".5" x2="1.613" y2=".5" id="c"><stop stop-color="#1d1d1b" offset="0"/><stop stop-color="#3c3c3b" offset=".72"/><stop stop-color="#575756" offset="1"/></linearGradient><linearGradient x1="-2.528" y1=".5" x2="2.404" y2=".5" id="d"><stop stop-color="#6f6f6e" offset="0"/><stop stop-color="#575756" offset=".3"/><stop stop-color="#3c3c3b" offset=".91"/><stop stop-color="#1d1d1b" offset="1"/></linearGradient><linearGradient x1="0" y1=".5" x2="2.171" y2=".5" id="e"><stop stop-color="#6f6f6e" offset="0"/><stop stop-color="#575756" offset=".11"/><stop stop-color="#3c3c3b" offset=".92"/><stop stop-color="#1d1d1b" offset="1"/></linearGradient></defs></svg>