<svg xmlns="http://www.w3.org/2000/svg" width="86.076" height="49.989" viewBox="76.529 0 86.076 49.989"><g data-name="Group 6465"><g data-name="Group 6463"><path d="M162.115 16.525c-.534-1.339-1.448-2.602-2.221-3.94-1.426-2.483-3.037-5.346-4.474-7.839C154.244 2.69 153.144.044 150.205 0c-3.059-.044-4.071 2.656-5.181 4.605-3.528 6.194-10.723 18.658-10.723 18.658h3.32s6.87-12.16 10.276-18.299c.436-.784 1.296-1.818 2.308-1.818 1.524 0 2.286 1.807 2.972 3.06 1.829 3.33 3.603 6.53 5.313 9.742.544 1.012 1.632 2.351.881 3.723-.49.893-1.48.838-2.885.838 0 .022-13.553 0-13.553 0v2.744h12.323s2.896.087 4.072-.131c1.948-.37 3.004-1.872 3.276-3.81v-.49c-.065-.86-.217-1.633-.49-2.308Z" fill-rule="evenodd" data-name="Path 36284"/><path d="M76.953 1.393H91.53L76.725 22.077c-.131.185-.196.38-.196.588v.61h17.113V21.88h-14.87l14.76-20.63a1.17 1.17 0 0 0 .23-.674V0h-16.82v1.393Z" fill-rule="evenodd" data-name="Path 36285"/><path d="M99.455 0h1.698v23.285h-1.698V0z" fill-rule="evenodd" data-name="Rectangle 2672"/><path d="M130.099.054c-.087.033-.174.12-.261.262l-9.145 16.176a5.125 5.125 0 0 0-.24.49c-.075.174-.14.349-.206.523a7.33 7.33 0 0 0-.425-.99l-9.405-16.2c-.087-.14-.174-.228-.272-.26a1.156 1.156 0 0 0-.37-.055h-1.154v23.285h1.458V3.44c0-.294-.01-.599-.054-.925l9.406 16.285c.163.283.38.425.653.425h.26c.284 0 .502-.142.654-.425l9.166-16.274c-.033.315-.054.62-.054.903v19.856h1.48V0h-1.165c-.152 0-.272.01-.359.054Z" fill-rule="evenodd" data-name="Path 36286"/></g><g data-name="Group 6464"><path d="M78.564 28.924c.12.066.262.196.425.392l12.258 15.948a5.954 5.954 0 0 1-.055-.751c0-.24-.01-.479-.01-.697v-14.99h2.514V49.99h-1.448c-.228 0-.414-.044-.566-.12a1.26 1.26 0 0 1-.446-.403L78.989 33.53c.022.25.033.49.043.718 0 .24.011.458.011.654v15.077H76.53V28.826h1.48c.25 0 .447.033.566.098Z" fill-rule="evenodd" data-name="Path 36287"/><path d="M111.451 28.826v2.33h-10.157v7.032h8.23v2.243h-8.23v7.217h10.157v2.33H98.41V28.826h13.041Z" fill-rule="evenodd" data-name="Path 36288"/><path d="M116.176 28.826h2.373a.955.955 0 0 1 .969.686l4.365 14.707c.076.261.152.555.218.86.065.305.12.62.185.958.065-.337.141-.653.207-.969.065-.316.152-.588.239-.849l4.975-14.707c.054-.163.174-.327.348-.468a.966.966 0 0 1 .632-.218h.827c.261 0 .468.066.631.196.164.13.273.294.349.49l4.942 14.707c.174.512.337 1.1.468 1.753.055-.327.109-.632.163-.936.044-.294.11-.567.196-.828l4.387-14.707a.867.867 0 0 1 .338-.468.959.959 0 0 1 .631-.207h2.232l-6.597 21.163h-2.57l-5.355-16.144a8.66 8.66 0 0 1-.294-1.067c-.054.196-.098.392-.141.566a3.837 3.837 0 0 1-.142.49l-5.389 16.144h-2.569l-6.597-21.163Z" fill-rule="evenodd" data-name="Path 36289"/><path d="M161.461 32.299c-.087.141-.174.25-.272.326a.576.576 0 0 1-.37.11c-.163 0-.36-.088-.566-.251a7.284 7.284 0 0 0-.827-.544 6.874 6.874 0 0 0-1.198-.545c-.468-.163-1.034-.25-1.698-.25a5.25 5.25 0 0 0-1.665.25 3.438 3.438 0 0 0-1.209.686 2.808 2.808 0 0 0-.73 1.023c-.162.392-.25.817-.25 1.263 0 .577.142 1.056.425 1.437.283.381.664.708 1.132.98.468.272 1.002.5 1.59.697.587.196 1.197.402 1.817.61.621.217 1.23.446 1.818.718a6.442 6.442 0 0 1 1.59 1.001c.468.403.838.904 1.121 1.492.283.587.425 1.306.425 2.166 0 .903-.153 1.753-.458 2.547a5.874 5.874 0 0 1-1.35 2.069c-.587.587-1.317 1.045-2.177 1.382-.86.338-1.84.5-2.939.5-1.339 0-2.558-.239-3.658-.728-1.1-.49-2.046-1.144-2.82-1.97l.806-1.329c.077-.109.175-.196.284-.272a.618.618 0 0 1 .37-.109c.206 0 .435.109.696.327.262.217.588.457.98.718.392.261.86.5 1.415.719.555.217 1.23.326 2.025.326.664 0 1.252-.087 1.774-.272.523-.185.958-.435 1.318-.773.359-.337.642-.73.827-1.197.196-.458.294-.98.294-1.546 0-.62-.142-1.143-.425-1.535a3.453 3.453 0 0 0-1.12-1.002c-.469-.272-.991-.5-1.58-.685l-1.817-.577c-.62-.196-1.23-.425-1.818-.686a5.933 5.933 0 0 1-1.579-1.013 4.725 4.725 0 0 1-1.121-1.556c-.283-.62-.425-1.394-.425-2.308a5.514 5.514 0 0 1 1.655-3.94c.544-.534 1.208-.959 2.003-1.275.795-.315 1.71-.479 2.733-.479 1.153 0 2.21.186 3.167.545a7.33 7.33 0 0 1 2.504 1.59l-.675 1.327Z" fill-rule="evenodd" data-name="Path 36290"/></g></g></svg>